<svg width="85" height="20" viewBox="0 0 85 20" fill="none" xmlns="http://www.w3.org/2000/svg">
<path d="M69.7625 2.76113C70.3409 2.7515 70.8372 2.97446 71.3017 3.30142C71.6125 3.52019 71.8617 3.8017 71.9162 4.18997C72.0436 5.08942 70.9908 6.29402 70.4889 7.00522C70.3218 7.13606 70.2439 7.20778 70.028 7.21273C69.6591 7.22123 69.3249 7.05867 69.0813 6.78701C68.6445 6.30061 68.4923 5.71884 68.5567 5.07575C68.6509 4.1392 69.041 3.36202 69.7625 2.76113Z" fill="#393637"/>
<path d="M47.5211 7.95381C47.8885 7.91947 48.2687 7.93965 48.6235 8.04571C49.347 8.262 49.8087 8.7671 50.1712 9.4014C49.5425 9.60389 48.9506 9.81134 48.3841 10.1554C48.632 10.4372 48.8649 10.7509 49.2649 10.7997C49.8207 10.867 50.3581 10.3246 50.7595 10.0082C51.0158 10.2984 51.4505 10.8556 51.4158 11.2528C51.3974 11.4716 51.1737 11.6111 51.0781 11.793C50.9783 11.9821 50.8919 13.0448 50.8218 13.3627C50.356 15.4825 48.9987 17.4359 47.286 18.7407C46.8357 19.0735 46.3069 19.3546 45.7581 19.4756C44.91 19.6618 44.0292 19.4431 43.3148 18.9645C42.5006 18.4193 42.0177 17.5725 41.8273 16.6259C41.4428 14.7157 42.1162 12.7418 43.1874 11.1679C44.1743 9.71717 45.7539 8.29556 47.5211 7.95381Z" fill="#393637"/>
<path d="M47.2712 10.8344L47.3193 10.8889L47.4007 10.9795C47.4772 11.0652 47.5508 11.1523 47.6315 11.2351C48.2794 11.9 49.078 11.8688 49.9361 11.89C49.9247 11.9902 49.9124 12.0903 49.8993 12.1902C49.6154 14.3405 48.3282 16.4135 46.6248 17.7226C46.2346 17.9676 45.858 18.1949 45.3836 18.2232C45.1471 18.2373 44.9461 18.1835 44.7733 18.0136C44.4221 17.6681 44.4604 16.8957 44.4852 16.434C44.5991 14.3475 45.7256 12.2179 47.2712 10.8344Z" fill="#F9F8F7"/>
<path d="M8.92517 0.0348127C9.26367 -0.010429 9.64918 -0.00851683 9.98874 0.0229895C10.9644 0.113473 12.1628 0.549179 12.7779 1.34101C13.0679 1.71421 13.1602 2.1228 13.1012 2.58768C12.9637 3.67192 11.7137 6.40972 10.8298 7.04409C10.651 7.17238 10.4064 7.26909 10.1833 7.21068C9.96049 7.15241 9.82144 7.01952 9.71751 6.82135C8.98797 5.4299 10.4502 3.30871 10.8385 1.93673C10.8895 1.75662 10.9487 1.55753 10.8529 1.38406C10.7557 1.35107 10.7409 1.34186 10.6287 1.32572C10.0486 1.24232 9.16887 1.88965 8.71964 2.22064C7.22737 3.32018 5.3474 5.03767 5.08473 6.98766C4.76216 9.38229 7.49514 11.2443 8.7978 12.9103C9.48514 13.7896 10.0291 14.8226 9.8596 15.9767C9.72388 16.8999 9.21284 17.5831 8.47863 18.1248C8.05009 18.4229 7.59365 18.6787 7.11572 18.8887C5.64788 19.5302 3.54432 19.9281 2.01367 19.2831C1.20697 18.9432 0.469932 18.2926 0.155719 17.4607C-0.00344161 17.0394 -0.0815356 16.3413 0.123574 15.925C0.195649 15.7784 0.234378 15.7784 0.379378 15.7275C0.73848 15.8492 1.1778 16.621 1.48614 16.902C2.04128 17.4083 3.0759 17.484 3.79969 17.433C4.68888 17.37 5.76866 17.0649 6.35291 16.354C7.43319 15.0386 5.34796 13.2098 4.5094 12.3467C4.00381 11.827 3.4956 11.3074 3.04871 10.7346C2.37985 9.87789 1.84687 8.92611 1.73316 7.82835C1.55963 6.15264 2.27571 4.53781 3.32285 3.26658C4.69631 1.59923 6.74684 0.251675 8.92517 0.0348127Z" fill="#393637"/>
<path d="M79.0211 0.198219C79.0643 0.211034 79.1074 0.223 79.1506 0.236735C79.642 0.394621 80.5206 0.938584 80.7366 1.40934C80.8435 1.64185 80.6658 1.93666 80.5666 2.15763C80.2261 2.91938 79.8041 3.65358 79.4275 4.39968C78.1807 6.87254 76.8588 9.40777 75.9653 12.0309C76.5827 11.0808 77.2666 10.1852 78.0603 9.3752C78.7683 8.65339 79.9861 7.50953 81.0658 7.53637C81.623 7.55024 82.0874 7.91522 82.457 8.30186C82.7855 8.64546 82.9328 9.00704 82.913 9.48211C82.8684 10.5293 82.2234 11.4072 81.4764 12.0883C80.1107 13.3351 78.6579 13.7903 76.8369 13.7103C77.13 14.9578 77.5647 16.3498 78.4702 17.3006C78.854 17.7028 79.3319 17.9789 79.9004 17.969C81.4212 17.9421 82.6914 16.2953 83.4581 15.1469C83.7987 14.6364 84.1109 14.0424 84.5456 13.6133C84.7439 13.5822 84.7566 13.5609 84.9244 13.665C85.0306 14.002 84.8281 14.3752 84.6773 14.6718C83.7973 16.4078 82.3275 18.871 80.3521 19.4834C79.5662 19.7277 78.7584 19.5882 78.0384 19.213C76.262 18.2869 75.4994 16.3795 74.9422 14.5713C74.6654 15.2701 74.4813 16.0114 74.2576 16.7293C74.1471 17.0854 73.9878 17.4245 73.8802 17.78C73.6905 18.4073 73.6763 19.1061 73.2586 19.6371C73.1248 19.6973 73.0986 19.7256 72.9442 19.7142C72.4146 19.676 71.6882 19.2059 71.3696 18.7889C71.0347 18.352 71.2089 17.5385 71.274 17.0316C71.1035 17.2472 70.9295 17.4601 70.7522 17.6702C69.9359 18.6253 68.9114 19.47 67.5988 19.5436C66.7952 19.5882 65.9534 19.3142 65.3693 18.7514C64.7512 18.1552 64.6528 17.5364 64.6379 16.725C63.8952 17.7439 62.9401 18.8901 61.7294 19.3574C60.94 19.6619 60.0627 19.6696 59.2875 19.317C58.7232 19.06 58.2651 18.6161 58.0499 18.0285C57.4275 16.3286 59.0057 13.2169 59.691 11.6394C58.8712 12.1456 58.1993 12.7474 57.5146 13.4193C55.5924 15.3501 54.1233 16.8532 53.6277 19.6257C52.9048 19.511 52.0707 19.2845 51.5936 18.6855C51.3153 18.3365 51.2849 18.0794 51.3273 17.6497C51.3712 17.1951 51.4916 16.7463 51.636 16.3144C52.0559 15.0633 54.7321 8.5554 55.5903 7.94418C55.6972 7.86778 55.763 7.89094 55.889 7.92577C56.3832 8.06171 57.2668 9.08577 57.4438 9.54654C57.5251 9.75977 57.539 9.99284 57.4835 10.2142C57.2449 11.1509 56.0321 12.7779 55.569 13.7882C56.5885 12.615 60.3375 8.57884 61.7549 8.45189C62.026 8.42754 62.2207 8.51568 62.4183 8.69814C62.768 9.02177 63.1907 9.57061 63.1957 10.0733C63.2013 10.6709 62.785 11.4199 62.5648 11.9771C62.036 13.3138 60.8154 16.2776 60.8762 17.6299C60.8883 17.8947 60.9378 18.0575 61.1347 18.2373C61.2741 18.2557 61.3612 18.2579 61.4979 18.2133C62.0027 18.0497 62.5705 17.5024 62.945 17.1392C63.7444 16.3647 64.6089 15.3883 65.1469 14.4148C65.5356 13.7125 65.7643 12.8905 66.0596 12.1407C66.6076 10.7494 67.2419 9.28599 67.9853 7.99261L68.0392 7.9C68.5935 8.25131 69.0969 8.64744 69.429 9.22935C69.572 9.47999 69.7136 9.81417 69.6824 10.1087C69.5791 11.0978 68.876 12.2568 68.5022 13.1885C68.0935 14.2031 67.7321 15.236 67.4189 16.2839C67.2724 16.7888 66.9736 17.7354 67.3092 18.2019C67.4168 18.352 67.5761 18.4023 67.7524 18.4129C69.2753 18.5028 71.5643 15.3026 72.169 14.1592C72.6412 13.2664 72.9265 12.2363 73.3103 11.2989C74.3518 8.75669 77.1526 2.05978 78.9524 0.265407C78.975 0.242751 78.9977 0.220592 79.0211 0.198219Z" fill="#393637"/>
<path d="M80.1404 9.13505C80.3691 9.12336 80.4328 9.11119 80.6445 9.2159C80.6983 9.36671 80.7054 9.3929 80.6488 9.55221C80.1815 10.8698 78.3853 12.2348 77.1491 12.7935C77.0047 12.8388 76.9119 12.8657 76.7604 12.8444C76.7392 12.722 76.7179 12.6809 76.7576 12.5577C77.0974 11.5014 79.1259 9.67044 80.1404 9.13505Z" fill="#F9F8F7"/>
<path d="M31.1084 0.9058C31.2835 0.932633 31.448 0.986584 31.6099 1.05809C32.0843 1.2678 32.6424 1.70401 32.8221 2.20959C32.9472 2.56176 32.8053 2.91328 32.6771 3.24506C32.2998 4.22112 31.708 5.17289 31.2177 6.09861C30.3716 7.67646 29.5597 9.27242 28.7825 10.8854C28.1395 12.2306 26.4983 16.114 27.0278 17.4812C27.137 17.763 27.3537 18.066 27.6491 18.1708C27.9756 18.2869 28.3333 18.1722 28.6268 18.0193C29.7 17.4607 31.092 15.7678 31.5993 14.6987C31.8065 14.2619 31.9342 13.7606 32.0909 13.3025C32.7833 11.2783 34.4536 9.14007 36.4108 8.20316C37.1217 7.86282 37.9287 7.75471 38.6791 8.03905C39.3132 8.27928 39.6876 8.72306 39.9594 9.32635C39.4668 9.50902 38.8886 9.66407 38.4885 10.0131C38.4127 10.188 38.4089 10.1745 38.4763 10.3523C38.6971 10.5491 38.9674 10.6999 39.2589 10.765C39.6445 10.8514 40.231 10.2638 40.563 10.0485C40.8107 10.2765 41.0593 10.5342 41.2361 10.8224C41.3678 11.0369 41.3862 11.2019 41.326 11.449C41.1851 11.6656 41.0452 11.7201 40.8119 11.8185C40.8192 13.2707 40.3049 14.5699 39.5884 15.8174C38.7431 17.2886 37.2552 19.0494 35.5317 19.4756C34.729 19.6739 33.8368 19.5075 33.1419 19.0664C32.1817 18.4568 31.8134 17.5916 31.5566 16.5367C30.7516 17.5527 29.8785 18.7195 28.6748 19.2859C27.9115 19.6456 26.9096 19.7985 26.1041 19.4856C25.3286 19.1839 24.9654 18.5163 24.6389 17.8026L24.3969 16.8865C24.0266 17.3991 23.6507 17.935 23.2081 18.3881C22.5027 19.1103 21.4976 19.6187 20.4773 19.6116C19.7817 19.6066 19.1065 19.3617 18.6214 18.8526C17.8509 18.0448 17.8436 17.067 17.8573 16.0248C17.1767 17.072 16.3241 18.5666 15.2332 19.2073C14.7611 19.4848 14.1978 19.5896 13.6678 19.424C12.9614 19.2024 12.1574 18.4788 11.8429 17.8217C11.3899 16.8758 11.5025 15.8188 11.8256 14.8559C12.5966 12.5577 14.4829 9.5699 16.7385 8.47497C17.3908 8.15842 18.1626 8.00797 18.8587 8.27283C19.6737 8.58294 20.0577 9.2867 20.3902 10.0372C20.7534 9.37591 21.0604 8.70217 21.3506 8.00683C21.9804 8.3122 22.5625 8.79683 22.8964 9.42405C23.0321 9.67823 23.1384 9.97347 23.0994 10.2659C22.9782 11.1728 22.234 12.2334 21.8384 13.0738C21.4932 13.808 21.1721 14.567 20.9231 15.3388C20.7116 15.9937 20.3618 17.1647 20.727 17.7984C20.841 17.9966 21.0501 18.141 21.2718 18.1906C22.2817 18.4172 23.9759 16.16 24.3642 15.3954C24.8015 14.5345 25.1129 12.7531 25.4746 11.7244C26.2304 9.57415 29.4804 1.98778 31.1084 0.9058Z" fill="#393637"/>
<path d="M19.1487 10.2984C19.4762 10.3147 19.7983 10.3806 20.1208 10.4365C19.225 12.5839 16.8804 16.3101 14.9937 17.6277C14.7647 17.6943 14.6624 17.7099 14.4302 17.6568C14.2531 17.5173 14.168 17.4189 14.143 17.1874C14.0027 15.8917 15.2661 13.7408 16.0024 12.7397C16.7637 11.7038 17.8139 10.5016 19.1487 10.2984Z" fill="#F9F8F7"/>
<path d="M37.256 10.7537C37.4712 10.9534 37.6693 11.2797 37.8528 11.5169C38.4619 11.7414 39.093 11.8518 39.7278 11.9778C39.721 12.0572 39.7132 12.1365 39.7044 12.2157C39.4705 14.3865 38.0487 16.3993 36.3926 17.7396C36.0015 18.0044 35.5542 18.2395 35.0684 18.2303C34.8465 18.2267 34.6683 18.1488 34.5189 17.9853C34.1893 17.6242 34.2006 16.9006 34.2308 16.4369C34.3716 14.2718 35.6612 12.1669 37.256 10.7537Z" fill="#F9F8F7"/>
</svg>
